<?xml version="1.0" encoding="iso-8859-1"?>
<!-- Generator: Adobe Illustrator 19.0.0, SVG Export Plug-In . SVG Version: 6.00 Build 0)  -->
<svg version="1.1" id="Layer_1" xmlns="http://www.w3.org/2000/svg" xmlns:xlink="http://www.w3.org/1999/xlink" x="0px" y="0px"
	 viewBox="0 0 480 480" style="enable-background:new 0 0 480 480;" xml:space="preserve">
<g>
	<path style="fill:#99B5C1;" d="M30.4,464.8c0,8-6.4,15.2-15.2,15.2l0,0c-8,0-15.2-6.4-15.2-15.2V15.2C0,7.2,7.2,0,15.2,0l0,0
		c8,0,15.2,6.4,15.2,15.2V464.8z"/>
	<path style="fill:#99B5C1;" d="M464.8,449.6c8,0,15.2,6.4,15.2,15.2l0,0c0,8-6.4,15.2-15.2,15.2H15.2c-8,0-15.2-6.4-15.2-15.2l0,0
		c0-8,6.4-15.2,15.2-15.2H464.8z"/>
</g>
<g>
	<circle style="fill:#C6DDE5;" cx="66.4" cy="30.4" r="5.6"/>
	<circle style="fill:#C6DDE5;" cx="66.4" cy="68.8" r="5.6"/>
	<circle style="fill:#C6DDE5;" cx="66.4" cy="106.4" r="5.6"/>
	<circle style="fill:#C6DDE5;" cx="66.4" cy="144.8" r="5.6"/>
	<circle style="fill:#C6DDE5;" cx="66.4" cy="183.2" r="5.6"/>
	<circle style="fill:#C6DDE5;" cx="66.4" cy="221.6" r="5.6"/>
	<circle style="fill:#C6DDE5;" cx="66.4" cy="260" r="5.6"/>
	<circle style="fill:#C6DDE5;" cx="66.4" cy="298.4" r="5.6"/>
	<circle style="fill:#C6DDE5;" cx="66.4" cy="336.8" r="5.6"/>
	<circle style="fill:#C6DDE5;" cx="66.4" cy="374.4" r="5.6"/>
	<circle style="fill:#C6DDE5;" cx="66.4" cy="412.8" r="5.6"/>
	<circle style="fill:#C6DDE5;" cx="98.4" cy="30.4" r="5.6"/>
	<circle style="fill:#C6DDE5;" cx="98.4" cy="68.8" r="5.6"/>
	<circle style="fill:#C6DDE5;" cx="98.4" cy="106.4" r="5.6"/>
	<circle style="fill:#C6DDE5;" cx="98.4" cy="144.8" r="5.6"/>
	<circle style="fill:#C6DDE5;" cx="98.4" cy="183.2" r="5.6"/>
	<circle style="fill:#C6DDE5;" cx="98.4" cy="221.6" r="5.6"/>
	<circle style="fill:#C6DDE5;" cx="98.4" cy="260" r="5.6"/>
	<circle style="fill:#C6DDE5;" cx="98.4" cy="298.4" r="5.6"/>
	<circle style="fill:#C6DDE5;" cx="98.4" cy="336.8" r="5.6"/>
	<circle style="fill:#C6DDE5;" cx="98.4" cy="374.4" r="5.6"/>
	<circle style="fill:#C6DDE5;" cx="98.4" cy="412.8" r="5.6"/>
	<circle style="fill:#C6DDE5;" cx="130.4" cy="30.4" r="5.6"/>
	<circle style="fill:#C6DDE5;" cx="130.4" cy="68.8" r="5.6"/>
	<circle style="fill:#C6DDE5;" cx="130.4" cy="106.4" r="5.6"/>
	<circle style="fill:#C6DDE5;" cx="130.4" cy="144.8" r="5.6"/>
	<circle style="fill:#C6DDE5;" cx="130.4" cy="183.2" r="5.6"/>
	<circle style="fill:#C6DDE5;" cx="130.4" cy="221.6" r="5.6"/>
	<circle style="fill:#C6DDE5;" cx="130.4" cy="260" r="5.6"/>
	<circle style="fill:#C6DDE5;" cx="130.4" cy="298.4" r="5.6"/>
	<circle style="fill:#C6DDE5;" cx="130.4" cy="336.8" r="5.6"/>
	<circle style="fill:#C6DDE5;" cx="130.4" cy="374.4" r="5.6"/>
	<circle style="fill:#C6DDE5;" cx="130.4" cy="412.8" r="5.6"/>
	<circle style="fill:#C6DDE5;" cx="162.4" cy="30.4" r="5.6"/>
	<circle style="fill:#C6DDE5;" cx="162.4" cy="68.8" r="5.6"/>
	<circle style="fill:#C6DDE5;" cx="162.4" cy="106.4" r="5.6"/>
	<circle style="fill:#C6DDE5;" cx="162.4" cy="144.8" r="5.6"/>
	<circle style="fill:#C6DDE5;" cx="162.4" cy="183.2" r="5.6"/>
	<circle style="fill:#C6DDE5;" cx="162.4" cy="221.6" r="5.6"/>
	<circle style="fill:#C6DDE5;" cx="162.4" cy="260" r="5.6"/>
	<circle style="fill:#C6DDE5;" cx="162.4" cy="298.4" r="5.6"/>
	<circle style="fill:#C6DDE5;" cx="162.4" cy="336.8" r="5.6"/>
	<circle style="fill:#C6DDE5;" cx="162.4" cy="374.4" r="5.6"/>
	<circle style="fill:#C6DDE5;" cx="162.4" cy="412.8" r="5.6"/>
	<circle style="fill:#C6DDE5;" cx="195.2" cy="30.4" r="5.6"/>
	<circle style="fill:#C6DDE5;" cx="195.2" cy="68.8" r="5.6"/>
	<circle style="fill:#C6DDE5;" cx="195.2" cy="106.4" r="5.6"/>
	<circle style="fill:#C6DDE5;" cx="195.2" cy="144.8" r="5.6"/>
	<circle style="fill:#C6DDE5;" cx="195.2" cy="183.2" r="5.6"/>
	<circle style="fill:#C6DDE5;" cx="195.2" cy="221.6" r="5.6"/>
	<circle style="fill:#C6DDE5;" cx="195.2" cy="260" r="5.6"/>
	<circle style="fill:#C6DDE5;" cx="195.2" cy="298.4" r="5.6"/>
	<circle style="fill:#C6DDE5;" cx="195.2" cy="336.8" r="5.6"/>
	<circle style="fill:#C6DDE5;" cx="195.2" cy="374.4" r="5.6"/>
	<circle style="fill:#C6DDE5;" cx="195.2" cy="412.8" r="5.6"/>
	<circle style="fill:#C6DDE5;" cx="227.2" cy="30.4" r="5.6"/>
	<circle style="fill:#C6DDE5;" cx="227.2" cy="68.8" r="5.6"/>
	<circle style="fill:#C6DDE5;" cx="227.2" cy="106.4" r="5.6"/>
	<circle style="fill:#C6DDE5;" cx="227.2" cy="144.8" r="5.6"/>
	<circle style="fill:#C6DDE5;" cx="227.2" cy="183.2" r="5.6"/>
	<circle style="fill:#C6DDE5;" cx="227.2" cy="221.6" r="5.6"/>
	<circle style="fill:#C6DDE5;" cx="227.2" cy="260" r="5.6"/>
	<circle style="fill:#C6DDE5;" cx="227.2" cy="298.4" r="5.6"/>
	<circle style="fill:#C6DDE5;" cx="227.2" cy="336.8" r="5.6"/>
	<circle style="fill:#C6DDE5;" cx="227.2" cy="374.4" r="5.6"/>
	<circle style="fill:#C6DDE5;" cx="227.2" cy="412.8" r="5.6"/>
	<circle style="fill:#C6DDE5;" cx="259.2" cy="30.4" r="5.6"/>
	<circle style="fill:#C6DDE5;" cx="259.2" cy="68.8" r="5.6"/>
	<circle style="fill:#C6DDE5;" cx="259.2" cy="106.4" r="5.6"/>
	<circle style="fill:#C6DDE5;" cx="259.2" cy="144.8" r="5.6"/>
	<circle style="fill:#C6DDE5;" cx="259.2" cy="183.2" r="5.6"/>
	<circle style="fill:#C6DDE5;" cx="259.2" cy="221.6" r="5.6"/>
	<circle style="fill:#C6DDE5;" cx="259.2" cy="260" r="5.6"/>
	<circle style="fill:#C6DDE5;" cx="259.2" cy="298.4" r="5.6"/>
	<circle style="fill:#C6DDE5;" cx="259.2" cy="336.8" r="5.6"/>
	<circle style="fill:#C6DDE5;" cx="259.2" cy="374.4" r="5.6"/>
	<circle style="fill:#C6DDE5;" cx="259.2" cy="412.8" r="5.6"/>
	<circle style="fill:#C6DDE5;" cx="291.2" cy="30.4" r="5.6"/>
	<circle style="fill:#C6DDE5;" cx="291.2" cy="68.8" r="5.6"/>
	<circle style="fill:#C6DDE5;" cx="291.2" cy="106.4" r="5.6"/>
	<circle style="fill:#C6DDE5;" cx="291.2" cy="144.8" r="5.6"/>
	<circle style="fill:#C6DDE5;" cx="291.2" cy="183.2" r="5.6"/>
	<circle style="fill:#C6DDE5;" cx="291.2" cy="221.6" r="5.6"/>
	<circle style="fill:#C6DDE5;" cx="291.2" cy="260" r="5.6"/>
	<circle style="fill:#C6DDE5;" cx="291.2" cy="298.4" r="5.6"/>
	<circle style="fill:#C6DDE5;" cx="291.2" cy="336.8" r="5.6"/>
	<circle style="fill:#C6DDE5;" cx="291.2" cy="374.4" r="5.6"/>
	<circle style="fill:#C6DDE5;" cx="291.2" cy="412.8" r="5.6"/>
	<circle style="fill:#C6DDE5;" cx="323.2" cy="30.4" r="5.6"/>
	<circle style="fill:#C6DDE5;" cx="323.2" cy="68.8" r="5.6"/>
	<circle style="fill:#C6DDE5;" cx="323.2" cy="106.4" r="5.6"/>
	<circle style="fill:#C6DDE5;" cx="323.2" cy="144.8" r="5.6"/>
	<circle style="fill:#C6DDE5;" cx="323.2" cy="183.2" r="5.6"/>
	<circle style="fill:#C6DDE5;" cx="323.2" cy="221.6" r="5.6"/>
	<circle style="fill:#C6DDE5;" cx="323.2" cy="260" r="5.6"/>
	<circle style="fill:#C6DDE5;" cx="323.2" cy="298.4" r="5.6"/>
	<circle style="fill:#C6DDE5;" cx="323.2" cy="336.8" r="5.6"/>
	<circle style="fill:#C6DDE5;" cx="323.2" cy="374.4" r="5.6"/>
	<circle style="fill:#C6DDE5;" cx="323.2" cy="412.8" r="5.6"/>
	<circle style="fill:#C6DDE5;" cx="356" cy="30.4" r="5.6"/>
	<circle style="fill:#C6DDE5;" cx="356" cy="68.8" r="5.6"/>
	<circle style="fill:#C6DDE5;" cx="356" cy="106.4" r="5.6"/>
	<circle style="fill:#C6DDE5;" cx="356" cy="144.8" r="5.6"/>
	<circle style="fill:#C6DDE5;" cx="356" cy="183.2" r="5.6"/>
	<circle style="fill:#C6DDE5;" cx="356" cy="221.6" r="5.6"/>
	<circle style="fill:#C6DDE5;" cx="356" cy="260" r="5.6"/>
	<circle style="fill:#C6DDE5;" cx="356" cy="298.4" r="5.6"/>
	<circle style="fill:#C6DDE5;" cx="356" cy="336.8" r="5.6"/>
	<circle style="fill:#C6DDE5;" cx="356" cy="374.4" r="5.6"/>
	<circle style="fill:#C6DDE5;" cx="356" cy="412.8" r="5.6"/>
	<path style="fill:#C6DDE5;" d="M393.6,30.4c0,3.2-2.4,5.6-5.6,5.6s-5.6-2.4-5.6-5.6c0-3.2,2.4-5.6,5.6-5.6
		C391.2,24.8,393.6,27.2,393.6,30.4z"/>
	<path style="fill:#C6DDE5;" d="M393.6,68.8c0,3.2-2.4,5.6-5.6,5.6s-5.6-2.4-5.6-5.6s2.4-5.6,5.6-5.6
		C391.2,62.4,393.6,65.6,393.6,68.8z"/>
	<path style="fill:#C6DDE5;" d="M393.6,106.4c0,3.2-2.4,5.6-5.6,5.6s-5.6-2.4-5.6-5.6s2.4-5.6,5.6-5.6S393.6,104,393.6,106.4z"/>
	<path style="fill:#C6DDE5;" d="M393.6,144.8c0,3.2-2.4,5.6-5.6,5.6s-5.6-2.4-5.6-5.6s2.4-5.6,5.6-5.6S393.6,141.6,393.6,144.8z"/>
	<path style="fill:#C6DDE5;" d="M393.6,183.2c0,3.2-2.4,5.6-5.6,5.6s-5.6-2.4-5.6-5.6s2.4-5.6,5.6-5.6
		C391.2,177.6,393.6,180,393.6,183.2z"/>
	<path style="fill:#C6DDE5;" d="M393.6,221.6c0,3.2-2.4,5.6-5.6,5.6s-5.6-2.4-5.6-5.6s2.4-5.6,5.6-5.6S393.6,218.4,393.6,221.6z"/>
	<path style="fill:#C6DDE5;" d="M393.6,260c0,3.2-2.4,5.6-5.6,5.6s-5.6-2.4-5.6-5.6s2.4-5.6,5.6-5.6S393.6,256.8,393.6,260z"/>
	<path style="fill:#C6DDE5;" d="M393.6,298.4c0,3.2-2.4,5.6-5.6,5.6s-5.6-2.4-5.6-5.6s2.4-5.6,5.6-5.6S393.6,295.2,393.6,298.4z"/>
	<path style="fill:#C6DDE5;" d="M393.6,336.8c0,3.2-2.4,5.6-5.6,5.6s-5.6-2.4-5.6-5.6s2.4-5.6,5.6-5.6
		C391.2,331.2,393.6,333.6,393.6,336.8z"/>
	<path style="fill:#C6DDE5;" d="M393.6,374.4c0,3.2-2.4,5.6-5.6,5.6s-5.6-2.4-5.6-5.6s2.4-5.6,5.6-5.6S393.6,372,393.6,374.4z"/>
	<path style="fill:#C6DDE5;" d="M393.6,412.8c0,3.2-2.4,5.6-5.6,5.6s-5.6-2.4-5.6-5.6s2.4-5.6,5.6-5.6
		C391.2,407.2,393.6,409.6,393.6,412.8z"/>
	<circle style="fill:#C6DDE5;" cx="420" cy="30.4" r="5.6"/>
	<circle style="fill:#C6DDE5;" cx="420" cy="68.8" r="5.6"/>
	<circle style="fill:#C6DDE5;" cx="420" cy="106.4" r="5.6"/>
	<circle style="fill:#C6DDE5;" cx="420" cy="144.8" r="5.6"/>
	<circle style="fill:#C6DDE5;" cx="420" cy="183.2" r="5.6"/>
	<circle style="fill:#C6DDE5;" cx="420" cy="221.6" r="5.6"/>
	<circle style="fill:#C6DDE5;" cx="420" cy="260" r="5.6"/>
	<circle style="fill:#C6DDE5;" cx="420" cy="298.4" r="5.6"/>
	<circle style="fill:#C6DDE5;" cx="420" cy="336.8" r="5.6"/>
	<circle style="fill:#C6DDE5;" cx="420" cy="374.4" r="5.6"/>
	<circle style="fill:#C6DDE5;" cx="420" cy="412.8" r="5.6"/>
	<circle style="fill:#C6DDE5;" cx="452" cy="30.4" r="5.6"/>
	<circle style="fill:#C6DDE5;" cx="452" cy="68.8" r="5.6"/>
	<circle style="fill:#C6DDE5;" cx="452" cy="106.4" r="5.6"/>
	<circle style="fill:#C6DDE5;" cx="452" cy="144.8" r="5.6"/>
	<circle style="fill:#C6DDE5;" cx="452" cy="183.2" r="5.6"/>
	<circle style="fill:#C6DDE5;" cx="452" cy="221.6" r="5.6"/>
	<circle style="fill:#C6DDE5;" cx="452" cy="260" r="5.6"/>
	<circle style="fill:#C6DDE5;" cx="452" cy="298.4" r="5.6"/>
	<circle style="fill:#C6DDE5;" cx="452" cy="336.8" r="5.6"/>
	<circle style="fill:#C6DDE5;" cx="452" cy="374.4" r="5.6"/>
	<circle style="fill:#C6DDE5;" cx="452" cy="412.8" r="5.6"/>
</g>
<path style="fill:#FF7300;" d="M340.8,386.4c-5.6,0-11.2-2.4-15.2-6.4L212,266.4v-31.2l61.6-61.6l-132-131.2
	c-8.8-8.8-8.8-22.4,0-31.2s22.4-8.8,31.2,0L320,158.4v31.2l-61.6,61.6l97.6,97.6c8.8,8.8,8.8,22.4,0,31.2
	C352,384,346.4,386.4,340.8,386.4z"/>
<path style="fill:#E23B14;" d="M368,392c8.8-8.8,8.8-22.4,0-31.2L258.4,251.2L228,220.8l61.6-61.6V128L172,11.2
	c-8.8-8.8-22.4-8.8-31.2,0s-8.8,22.4,0,31.2L242.4,144l30.4,30.4L211.2,236v31.2L337.6,392c4,4,9.6,6.4,15.2,6.4
	C358.4,398.4,364,396,368,392z"/>
<path style="fill:#FF7300;" d="M360.8,408h-74.4c-12,0-21.6-9.6-21.6-21.6s9.6-21.6,21.6-21.6h52V312c0-12,9.6-21.6,21.6-21.6
	s21.6,9.6,21.6,21.6v74.4C382.4,398.4,372.8,408,360.8,408z"/>
<path style="fill:#E23B14;" d="M360.8,290.4C360.8,290.4,360,290.4,360.8,290.4L360,364c0,12-9.6,21.6-21.6,21.6h-73.6v0.8
	c0,12,9.6,21.6,21.6,21.6h74.4c12,0,21.6-9.6,21.6-21.6V312C382.4,300,372.8,290.4,360.8,290.4z"/>
<g>
</g>
<g>
</g>
<g>
</g>
<g>
</g>
<g>
</g>
<g>
</g>
<g>
</g>
<g>
</g>
<g>
</g>
<g>
</g>
<g>
</g>
<g>
</g>
<g>
</g>
<g>
</g>
<g>
</g>
</svg>
